<svg width="209" height="85" viewBox="0 0 209 85" fill="none" xmlns="http://www.w3.org/2000/svg">
<path d="M55.4435 9.04316C59.2025 3.8269 65.24 0.73584 71.6695 0.73584H138.127C144.556 0.73584 150.594 3.82689 154.353 9.04315L190.627 59.3817C198.254 69.9647 190.691 84.7358 177.647 84.7358H32.1495C19.1049 84.7358 11.5424 69.9647 19.1687 59.3817L55.4435 9.04316Z" fill="#2F3135"/>
<path d="M189.069 66.7534C189.069 70.4083 186.261 71.2648 184.857 71.2362H23.3956C22.523 71.2088 20.7677 70.6023 20.7267 68.396" stroke="#4B4D51" stroke-linecap="round" stroke-linejoin="round"/>
<path d="M78.7478 43.328C70.7201 42.1636 67.9641 34.2693 68.9838 30.3578C69.2492 28.9469 71.0121 25.4966 75.9403 22.9822C80.8686 20.4677 81.7624 19.1992 82.394 17.1152C82.5281 14.165 84.4465 12.6639 86.7104 12.0447C92.6779 10.8713 96.3769 11.7513 97.4804 12.338C100.318 13.8893 98.509 17.8571 92.8707 19.4201C89.4915 20.8393 88.2083 23.8404 88.0686 24.958C87.7194 26.327 89.0352 28.8615 90.7731 29.7884C96.3018 32.737 99.4081 36.5602 97.7738 40.9604C96.1394 45.3606 91.6619 44.6637 89.6857 44.3548C85.6178 43.719 83.7161 44.1444 78.7478 43.328Z" fill="#CCFF8B"/>
<path d="M94.1231 48.677C91.154 46.4042 86.623 47.8722 84.4374 49.3494C82.4765 50.8267 81.721 52.826 81.6901 53.6771C81.6282 58.2228 85.5251 58.7911 88.5561 58.2228C91.587 57.6546 97.8344 51.5179 94.1231 48.677Z" fill="#CCFF8B"/>
<path d="M77.0404 48.9258C74.5303 48.834 72.3397 51.3477 71.5076 52.6156C70.8128 53.6007 71.2168 55.0972 72.4855 55.6803C74.5184 56.6147 76.3714 55.8485 77.4007 54.9689C78.5677 53.9716 80.1028 49.0378 77.0404 48.9258Z" fill="#CCFF8B"/>
<path d="M71.0293 44.5291C68.671 44.5042 66.6711 46.3523 65.8897 47.3982C65.2372 48.2108 65.5601 49.6198 66.7516 50.1008C68.6608 50.8715 70.1205 50.3534 71.2194 49.4149C72.363 48.4382 74.2413 44.5629 71.0293 44.5291Z" fill="#CCFF8B"/>
<path d="M67.2429 39.5916C65.2833 39.57 63.7199 40.7525 63.0706 41.6613C62.5284 42.3673 62.0442 43.802 63.0343 44.2199C64.6208 44.8896 66.2852 44.3785 67.1984 43.5631C68.1487 42.7145 69.912 39.621 67.2429 39.5916Z" fill="#CCFF8B"/>
<path d="M65.65 36.0085C63.4693 35.6225 61.1052 36.937 60.4438 37.6467C59.599 38.6124 60.1252 39.8052 62.0549 39.5585C64.0592 39.3022 68.0272 36.4294 65.65 36.0085Z" fill="#CCFF8B"/>
<path d="M133.552 43.328C141.58 42.1636 144.336 34.2693 143.316 30.3578C143.051 28.9469 141.288 25.4966 136.36 22.9822C131.432 20.4677 130.538 19.1992 129.906 17.1152C129.772 14.165 127.854 12.6639 125.59 12.0447C119.622 10.8713 115.923 11.7513 114.82 12.338C111.982 13.8893 113.791 17.8571 119.43 19.4201C122.809 20.8393 124.092 23.8404 124.232 24.958C124.581 26.327 123.265 28.8615 121.527 29.7884C115.998 32.737 112.892 36.5602 114.526 40.9604C116.161 45.3606 120.638 44.6637 122.614 44.3548C126.682 43.719 128.584 44.1444 133.552 43.328Z" fill="#CCFF8B"/>
<path d="M118.177 48.677C121.146 46.4042 125.677 47.8722 127.863 49.3494C129.824 50.8267 130.579 52.826 130.61 53.6771C130.672 58.2228 126.775 58.7911 123.744 58.2228C120.713 57.6546 114.466 51.5179 118.177 48.677Z" fill="#CCFF8B"/>
<path d="M135.26 48.9258C137.77 48.834 139.961 51.3477 140.793 52.6156C141.487 53.6007 141.083 55.0972 139.815 55.6803C137.782 56.6147 135.929 55.8485 134.899 54.9689C133.732 53.9716 132.197 49.0378 135.26 48.9258Z" fill="#CCFF8B"/>
<path d="M141.271 44.5291C143.629 44.5042 145.629 46.3523 146.411 47.3982C147.063 48.2108 146.74 49.6198 145.549 50.1008C143.639 50.8715 142.18 50.3534 141.081 49.4149C139.937 48.4382 138.059 44.5629 141.271 44.5291Z" fill="#CCFF8B"/>
<path d="M145.057 39.5916C147.017 39.57 148.58 40.7525 149.23 41.6613C149.772 42.3673 150.256 43.802 149.266 44.2199C147.679 44.8896 146.015 44.3785 145.102 43.5631C144.151 42.7145 142.388 39.621 145.057 39.5916Z" fill="#CCFF8B"/>
<path d="M146.65 36.0085C148.831 35.6225 151.195 36.937 151.856 37.6467C152.701 38.6124 152.175 39.8052 150.245 39.5585C148.241 39.3022 144.273 36.4294 146.65 36.0085Z" fill="#CCFF8B"/>
</svg>
