<svg width="209" height="85" viewBox="0 0 209 85" fill="none" xmlns="http://www.w3.org/2000/svg">
<path d="M54.8277 9.22919C58.5866 4.01294 64.6241 0.921875 71.0536 0.921875H137.511C143.94 0.921875 149.978 4.01293 153.737 9.22918L190.012 59.5677C197.638 70.1507 190.075 84.9219 177.031 84.9219H31.5336C18.489 84.9219 10.9266 70.1507 18.5529 59.5677L54.8277 9.22919Z" fill="#2F3135"/>
<path d="M188.453 66.9395C188.453 70.5943 185.645 71.4508 184.241 71.4222H22.7797C21.9072 71.3948 20.1519 70.7884 20.1108 68.582" stroke="#4B4D51" stroke-linecap="round" stroke-linejoin="round"/>
<g opacity="0.2">
<path d="M79.3057 43.7868C68.1082 42.5801 67.3483 34.4554 68.368 30.5438C68.6334 29.133 70.3962 25.6826 75.3245 23.1682C80.2527 20.6538 81.1466 19.3852 81.7781 17.3012C81.9122 14.351 83.8307 12.85 86.0945 12.2307C92.0621 11.0573 95.761 11.9374 96.8646 12.5241C99.7021 14.0753 97.8932 18.0432 92.2548 19.6062C86.3208 21.4836 84.5579 24.1881 84.4183 25.3057C84.069 26.6746 84.6194 29.5131 89.6147 29.9154C95.8588 30.4183 98.7923 36.7462 97.1579 41.1464C95.5236 45.5466 90.0338 44.7085 89.0699 44.5409C88.1061 44.3732 86.0526 43.9961 84.083 43.9542C82.5073 43.9206 80.2416 43.8286 79.3057 43.7868Z" fill="#E95958"/>
<path d="M94.0221 47.2821C90.7171 44.5281 85.0252 47.4196 82.5924 49.2096C80.4096 50.9997 80.217 52.3097 80.1825 53.3411C80.1137 58.8493 84.4514 59.5379 87.8252 58.8493C91.1991 58.1608 98.1532 50.7246 94.0221 47.2821Z" fill="#E95958"/>
<path d="M76.0667 49.1121C73.0561 49.0086 70.4288 51.8439 69.4308 53.2741C68.5976 54.3853 69.082 56.0732 70.6037 56.7309C73.0419 57.7849 75.2642 56.9207 76.4988 55.9285C77.8984 54.8036 79.7395 49.2385 76.0667 49.1121Z" fill="#E95958"/>
<path d="M70.7372 44.3479C67.8103 44.3197 65.3282 46.4235 64.3583 47.6142C63.5485 48.5393 63.9492 50.1432 65.428 50.6908C67.7975 51.5682 69.6092 50.9784 70.973 49.91C72.3925 48.7981 74.7236 44.3864 70.7372 44.3479Z" fill="#E95958"/>
<path d="M67.5091 39.7767C65.1879 39.7521 63.3361 41.1026 62.567 42.1405C61.9248 42.9468 61.3513 44.5854 62.5241 45.0628C64.4032 45.8276 66.3747 45.2438 67.4563 44.3126C68.582 43.3434 70.6705 39.8102 67.5091 39.7767Z" fill="#E95958"/>
<path d="M66.1778 36.2075C63.5515 35.744 60.7041 37.3222 59.9076 38.1742C58.8901 39.3336 59.5238 40.7655 61.8479 40.4693C64.2619 40.1617 69.0409 36.7128 66.1778 36.2075Z" fill="#E95958"/>
</g>
<g opacity="0.2">
<path d="M129.259 43.7868C140.456 42.5801 141.216 34.4554 140.197 30.5438C139.931 29.133 138.168 25.6826 133.24 23.1682C128.312 20.6538 127.418 19.3852 126.787 17.3012C126.652 14.351 124.734 12.85 122.47 12.2307C116.503 11.0573 112.804 11.9374 111.7 12.5241C108.863 14.0753 110.671 18.0432 116.31 19.6062C122.244 21.4836 124.007 24.1881 124.146 25.3057C124.496 26.6746 123.945 29.5131 118.95 29.9154C112.706 30.4183 109.772 36.7462 111.407 41.1464C113.041 45.5466 118.531 44.7085 119.495 44.5409C120.459 44.3732 122.512 43.9961 124.482 43.9542C126.057 43.9206 128.323 43.8286 129.259 43.7868Z" fill="#E95958"/>
<path d="M114.542 47.2821C117.847 44.5281 123.539 47.4196 125.972 49.2096C128.155 50.9997 128.347 52.3097 128.382 53.3411C128.451 58.8493 124.113 59.5379 120.739 58.8493C117.365 58.1608 110.411 50.7246 114.542 47.2821Z" fill="#E95958"/>
<path d="M132.498 49.1121C135.508 49.0086 138.136 51.8439 139.134 53.2741C139.967 54.3853 139.482 56.0732 137.961 56.7309C135.523 57.7849 133.3 56.9207 132.066 55.9285C130.666 54.8036 128.825 49.2385 132.498 49.1121Z" fill="#E95958"/>
<path d="M137.827 44.3479C140.754 44.3197 143.236 46.4235 144.206 47.6142C145.016 48.5393 144.615 50.1432 143.136 50.6908C140.767 51.5682 138.955 50.9784 137.591 49.91C136.172 48.7981 133.841 44.3864 137.827 44.3479Z" fill="#E95958"/>
<path d="M141.056 39.7767C143.377 39.7521 145.229 41.1026 145.998 42.1405C146.64 42.9468 147.213 44.5854 146.041 45.0628C144.161 45.8276 142.19 45.2438 141.108 44.3126C139.983 43.3434 137.894 39.8102 141.056 39.7767Z" fill="#E95958"/>
<path d="M142.387 36.2075C145.013 35.744 147.86 37.3222 148.657 38.1742C149.674 39.3336 149.041 40.7655 146.717 40.4693C144.303 40.1617 139.524 36.7128 142.387 36.2075Z" fill="#E95958"/>
</g>
</svg>
