<?xml version="1.0" encoding="utf-8"?>
<!-- Generator: Adobe Illustrator 26.5.2, SVG Export Plug-In . SVG Version: 6.00 Build 0)  -->
<svg version="1.1" id="레이어_1" xmlns="http://www.w3.org/2000/svg" xmlns:xlink="http://www.w3.org/1999/xlink" x="0px"
	 y="0px" viewBox="0 0 162.3 209.3" style="enable-background:new 0 0 162.3 209.3;" xml:space="preserve">
<style type="text/css">
	.st0{fill:none;stroke:#FFFFFF;stroke-width:1.5;}
	.st1{fill:#FFFFFF;}
</style>
<line class="st0" x1="34.8" y1="188.4" x2="0.4" y2="208.3"/>
<line class="st0" x1="162.3" y1="209.1" x2="127.9" y2="189.2"/>
<line class="st0" x1="0" y1="209.3" x2="162.3" y2="209.3"/>
<path class="st1" d="M112.9,94.7c0,0,0-0.1,0-0.2c0-0.8,0.1-1.6,0-2.4c-0.2-2.9-0.6-5.9-0.6-8.8c0.1-5.1-0.5-10.1-2.3-14.8
	c-0.2-0.4-0.3-0.8-0.2-1.2c0.4-5.3-0.4-10.4-2-15.4c-0.4-1.2-0.6-2.5-0.6-3.8c-0.2-3.7-0.5-7.3-2.2-10.7c-1.4-2.8-3.5-5-6.8-5.7
	c-1.9-0.4-3.6-1.2-5.2-2.2c-1.5-0.9-2.9-1.8-4.4-2.6c-1.6-0.8-2.6-2-2.9-3.7c0.5-0.6,1.1-1.2,1.3-1.9c0.5-1.3,0.9-2.6,1.3-3.9
	c2.4-0.5,2.9-4.5,1.8-5.6c-0.6-0.6-1.1-0.5-1.5-0.3c0.3-1.1,0.8-2.7,0.7-4c-0.2-2.2-0.8-3.3-1.7-4.7C86.8,1.5,85,1.6,85,1.6
	S84.2,0.2,80.6,0c-3.5-0.2-7.8,1.3-9,4.6c-1.2,3.2-0.6,5.5-0.2,6.9c-0.4-0.3-0.9-0.4-1.6,0.2c-1.2,1.1-0.6,5.2,1.8,5.6
	c0.3,0.9,0.6,1.7,1,2.5c0.4,0.9,0.9,1.8,1.4,2.7c0.1,0.2,0.4,0.5,0.3,0.7c-0.3,1.2-0.8,2.4-2,3.1c-2,1.2-3.9,2.5-5.9,3.6
	c-0.9,0.5-1.9,1.1-2.9,1.3c-4.9,0.9-7.5,4-9,8.5c-1,3-1.2,6.1-1.2,9.2c0,0.6-0.1,1.3-0.3,1.9c-1.9,5.3-2.8,10.7-2.3,16.3
	c0,0.4-0.1,0.9-0.2,1.3c-1.1,3.1-1.9,6.3-2.1,9.5c-0.3,4.4-0.4,8.9-0.7,13.3c0,0.8-0.1,1.6-0.1,2.4c0,0.2,0,0.4,0,0.7h0v2.8
	c0,0,0.1,5.4,0.4,6.9c0.3,1.5,1.5,3.7,1.5,3.7s1.4,1.8,2.1,2.3c0.7,0.5,1.9,1.1,1.6,0c-0.3-1-2-2.4-2.4-3.4c0.6,0.3,1.8,0.7,2.1,0.8
	c0.4,0.2,0.4-0.4,0.4-0.4c-0.3-1-1.9-2-3-2.5c-0.1-0.8-0.1-1.7,0.1-2.6c0.5-1.9,1-2.7,1.9-2.7c0.9,0,1.1,1.8,2.2,2.5
	c1,0.6,1.3-0.3,1.3-0.3c-1-1-0.6-3.4-0.9-4.8c-0.3-1.2-1-1.9-1.3-2.2c0-0.5,0-0.9,0.2-1.5c1.6-5.3,3.3-10.6,4.6-15.9
	c0.6-2.6,0.7-5.4,0.7-8.2c0-1.1,0-2.1,0.4-3.1c0.9-2.5,1.7-5,2.5-7.5c0.1-0.3,0.2-0.5,0.3-0.7c0.1,0,0.2,0,0.3,0
	c0.4,5.4,0.9,10.8,1.2,16.2c0.1,2.6,0.1,5.3-0.2,8c-0.6,6-1.8,12-2.2,18.1c-0.6,7.8,0.7,15.5,2.3,23.1c1,4.7,1.6,9.3,1.5,14
	c0,1.4-0.4,2.8-0.6,4.1c-0.2,1.3-0.6,2.6-0.8,3.9c-0.6,5.1,0.1,10.2,1.5,15.2c1.1,4.2,2.6,8.3,4,12.5c0.7,2,1.4,4,1.5,6
	c0,0-0.8,2-0.9,3.5c-0.1,1.5-4.7,4.8-5.4,6.6c-0.6,1.8,0.4,2.2,0.4,2.2h11.6c1.2,0,1.8-0.9,1.8-2.4c0-1.5-1.3-9.4-1.4-10
	c-0.5-6.9-0.7-13.7,0.2-20.6c0.7-5.2,0.1-10.4-1-15.4c-0.5-2.1-0.3-4.1,0.3-6.1c0.5-1.6,0.9-3.4,1.1-5.1c0.7-9,1.4-18,2.1-27
	c0.1-1.1,0.2-2.2,0.3-3.3c0.2,0.2,0.3,0.3,0.3,0.5c0.7,9.2,1.4,18.4,2.1,27.5c0.2,2.4,0.2,4.9,1.2,7.2c0.9,2.1,0.9,4.1,0.4,6.3
	c-1.1,5-1.7,10-1,15c0.2,1.7,0.5,3.4,0.6,5.1c0.1,5.3,0.3,10.6-0.2,15.8c0,0-1.4,8.6-1.4,10.1c0,1.5,0.6,2.4,1.8,2.4h11.6
	c0,0,1-0.4,0.4-2.2c-0.6-1.8-5.3-5.1-5.4-6.6c-0.1-1.5-0.9-3.5-0.9-3.5h0c0.1-2.1,0.7-4,1.5-6c1.9-4.7,3.5-9.5,4.5-14.5
	c1-4.9,1.7-9.8,0.7-14.8c-0.3-1.8-1.1-3.5-1.2-5.3c-0.2-5.1,0.5-10.1,1.5-15.2c1.7-8.6,3.2-17.2,1.9-26c-0.6-3.7-0.9-7.4-1.3-11.2
	c-0.3-3.1-0.8-6.1-0.8-9.2c0-4.1,0.4-8.1,0.8-12.2c0.2-2.1,0.5-4.1,0.8-6.2c1.3,3.1,2.3,6.1,3.3,9.2c0.1,0.2,0,0.4,0,0.7
	c0,2.3-0.1,4.6,0.2,6.9c0.9,6.3,3,12.3,5,18.3c0.1,0.5,0.3,1,0.2,1.6c0,0-1,0.8-1.3,2.2c-0.3,1.4,0,3.8-0.9,4.8c0,0,0.3,0.9,1.3,0.3
	c1-0.6,1.3-2.4,2.2-2.5c0.9,0,1.5,0.8,1.9,2.7c0.2,1,0.2,1.9,0.1,2.6c-1,0.6-2.6,1.5-3,2.5c0,0,0,0.5,0.4,0.4
	c0.3-0.1,1.5-0.6,2.1-0.8c-0.4,1-2.1,2.3-2.4,3.4c-0.3,1.1,0.8,0.5,1.6,0c0.7-0.5,2.1-2.3,2.1-2.3s1.2-2.2,1.5-3.7s0.4-6.9,0.4-6.9
	L112.9,94.7L112.9,94.7z"/>
</svg>
