<svg width="80" height="80" viewBox="0 0 80 80" fill="none" xmlns="http://www.w3.org/2000/svg">
<path d="M18.0588 28.5C18.8588 28.1 19.0588 27 19.0588 26.5C20.0588 24.5 24.0588 22.5 25.5588 22C27.0588 21.5 29.5588 21 32.5588 24.5C35.5588 28 31.5588 33.5 30.0588 35.5C28.5588 37.5 30.0588 43.5 32.0588 45C34.0588 46.5 38.5588 53.5 35.5588 56.5C32.5588 59.5 28.0588 56.5 26.5588 51.5C25.0588 46.5 19.0588 36 18.0588 33.5C17.0588 31 17.0588 29 18.0588 28.5Z" fill="#484848"/>
<path d="M32.0588 21C30.5588 22.5 28.5588 21 28.0588 18.5C28.0588 16 30.0588 14 32.0588 16C34.0588 18 33.5588 19.5 32.0588 21Z" fill="#484848"/>
<ellipse cx="24.9216" cy="18.2032" rx="1.6" ry="2" transform="rotate(-8 24.9216 18.2032)" fill="#484848"/>
<ellipse cx="21.2934" cy="20.1155" rx="1.52" ry="1.9" transform="rotate(-14 21.2934 20.1155)" fill="#484848"/>
<ellipse cx="18.3897" cy="23.0562" rx="1.36" ry="1.7" transform="rotate(-20 18.3897 23.0562)" fill="#484848"/>
<path d="M17.6426 26.3156C17.907 27.0422 17.6502 27.8027 17.069 28.0143C16.4877 28.2258 15.8021 27.8083 15.5377 27.0818C15.2732 26.3552 15.5301 25.4116 16.1113 25.2C16.6926 24.9884 17.3781 25.5891 17.6426 26.3156Z" fill="#484848"/>
<path d="M62.5612 35.5C61.7612 35.1 61.5612 34 61.5612 33.5C60.5612 31.5 56.5612 29.5 55.0612 29C53.5612 28.5 51.0612 28 48.0612 31.5C45.0612 35 49.0612 40.5 50.5612 42.5C52.0612 44.5 50.5612 50.5 48.5612 52C46.5612 53.5 42.0612 60.5 45.0612 63.5C48.0612 66.5 52.5612 63.5 54.0612 58.5C55.5612 53.5 61.5612 43 62.5612 40.5C63.5612 38 63.5612 36 62.5612 35.5Z" fill="#484848"/>
<path d="M48.5612 28C50.0612 29.5 52.0612 28 52.5612 25.5C52.5612 23 50.5612 21 48.5612 23C46.5612 25 47.0612 26.5 48.5612 28Z" fill="#484848"/>
<ellipse cx="1.6" cy="2" rx="1.6" ry="2" transform="matrix(-0.990268 -0.139173 -0.139173 0.990268 57.5612 23.4453)" fill="#484848"/>
<ellipse cx="1.52" cy="1.9" rx="1.52" ry="1.9" transform="matrix(-0.970296 -0.241922 -0.241922 0.970296 61.2612 25.6396)" fill="#484848"/>
<ellipse cx="1.36" cy="1.7" rx="1.36" ry="1.7" transform="matrix(-0.939693 -0.34202 -0.34202 0.939693 64.0897 28.9238)" fill="#484848"/>
<path d="M62.9774 33.3156C62.7129 34.0422 62.9698 34.8027 63.551 35.0143C64.1323 35.2258 64.8179 34.8083 65.0823 34.0818C65.3468 33.3552 65.0899 32.4116 64.5087 32.2C63.9274 31.9884 63.2418 32.5891 62.9774 33.3156Z" fill="#484848"/>
</svg>
